<svg id="Layer_1" data-name="Layer 1" xmlns="http://www.w3.org/2000/svg" xmlns:xlink="http://www.w3.org/1999/xlink" viewBox="0 0 50 50"><defs><style>.cls-1{fill:url(#radial-gradient);}.cls-2{fill:url(#radial-gradient-2);}.cls-3{fill:#721719;}.cls-4{fill:#892025;}.cls-5{fill:#a0231f;}</style><radialGradient id="radial-gradient" cx="6.71" cy="42.84" r="0.15" gradientTransform="matrix(45.34, 0, 0, -45.34, -274.78, 1951.92)" gradientUnits="userSpaceOnUse"><stop offset="0" stop-color="#fbc890"/><stop offset="0.28" stop-color="#f8ae4c"/><stop offset="0.93" stop-color="#bc7a27"/></radialGradient><radialGradient id="radial-gradient-2" cx="15.49" cy="33.09" r="0.15" gradientTransform="matrix(17.06, 0, 0, -17.06, -238.08, 591.59)" xlink:href="#radial-gradient"/></defs><circle id="Ellipse_17" data-name="Ellipse 17" class="cls-1" cx="29.17" cy="10.65" r="5.78"/><circle id="Ellipse_19" data-name="Ellipse 19" class="cls-2" cx="25.86" cy="27.98" r="2.17"/><g id="Group_150" data-name="Group 150"><g id="Group_149" data-name="Group 149"><g id="Group_146" data-name="Group 146"><path id="Path_516" data-name="Path 516" class="cls-3" d="M10.26,15.78l-1.6,3,2.47,3.78,1.6-3Z"/></g><g id="Group_147" data-name="Group 147"><path id="Path_517" data-name="Path 517" class="cls-4" d="M12.73,19.55l-1.6,3,4-1.26,1.6-3Z"/></g><g id="Group_148" data-name="Group 148"><path id="Path_518" data-name="Path 518" class="cls-5" d="M14.25,14.52l-4,1.26,2.47,3.77,4-1.25Z"/></g></g></g><g id="Group_155" data-name="Group 155"><g id="Group_154" data-name="Group 154"><g id="Group_151" data-name="Group 151"><path id="Path_519" data-name="Path 519" class="cls-4" d="M32,41.16,35.41,45,42,43.49l-3.43-3.84Z"/></g><g id="Group_152" data-name="Group 152"><path id="Path_520" data-name="Path 520" class="cls-3" d="M38.58,39.65,42,43.49l.31-6.28-3.43-3.83Z"/></g><g id="Group_153" data-name="Group 153"><path id="Path_521" data-name="Path 521" class="cls-5" d="M32.28,34.89,32,41.16l6.6-1.51.31-6.27Z"/></g></g></g></svg>