<svg id="Layer_1" data-name="Layer 1" xmlns="http://www.w3.org/2000/svg" xmlns:xlink="http://www.w3.org/1999/xlink" viewBox="0 0 50 50"><defs><style>.cls-1{fill:url(#radial-gradient);}.cls-2{fill:url(#radial-gradient-2);}.cls-3{fill:#d88b36;}.cls-4{fill:#bc7a27;}.cls-5{fill:#f8ae4c;}.cls-6{fill:#892025;}.cls-7{fill:#721719;}.cls-8{fill:#a0231f;}</style><radialGradient id="radial-gradient" cx="6.71" cy="42.88" r="0.17" gradientTransform="matrix(45.34, 0, 0, -45.34, -274.78, 1951.92)" gradientUnits="userSpaceOnUse"><stop offset="0" stop-color="#de1f2a"/><stop offset="0.28" stop-color="#a0231f"/><stop offset="0.93" stop-color="#721719"/></radialGradient><radialGradient id="radial-gradient-2" cx="15.46" cy="33.09" r="0.17" gradientTransform="matrix(17.06, 0, 0, -17.06, -238.08, 591.59)" gradientUnits="userSpaceOnUse"><stop offset="0" stop-color="#fbc890"/><stop offset="0.28" stop-color="#f8ae4c"/><stop offset="0.93" stop-color="#bc7a27"/></radialGradient></defs><circle id="Ellipse_5" data-name="Ellipse 5" class="cls-1" cx="29.02" cy="8.75" r="6.43"/><circle id="Ellipse_7" data-name="Ellipse 7" class="cls-2" cx="25.33" cy="28.05" r="2.42"/><g id="Group_134" data-name="Group 134"><g id="Group_133" data-name="Group 133"><g id="Group_130" data-name="Group 130"><path id="Path_506" data-name="Path 506" class="cls-3" d="M8,14.46,6.17,17.83,8.92,22l1.79-3.37Z"/></g><g id="Group_131" data-name="Group 131"><path id="Path_507" data-name="Path 507" class="cls-4" d="M10.71,18.66,8.92,22l4.44-1.39,1.78-3.37Z"/></g><g id="Group_132" data-name="Group 132"><path id="Path_508" data-name="Path 508" class="cls-5" d="M12.4,13.06,8,14.46l2.75,4.2,4.43-1.39Z"/></g></g></g><g id="Group_139" data-name="Group 139"><g id="Group_138" data-name="Group 138"><g id="Group_135" data-name="Group 135"><path id="Path_509" data-name="Path 509" class="cls-6" d="M32.14,42.73,36,47l7.35-1.68-3.82-4.27Z"/></g><g id="Group_136" data-name="Group 136"><path id="Path_510" data-name="Path 510" class="cls-7" d="M39.49,41.05l3.82,4.27.34-7-3.82-4.27Z"/></g><g id="Group_137" data-name="Group 137"><path id="Path_511" data-name="Path 511" class="cls-8" d="M32.48,35.74l-.34,7,7.35-1.68.35-7Z"/></g></g></g></svg>