<svg id="Layer_1" data-name="Layer 1" xmlns="http://www.w3.org/2000/svg" viewBox="0 0 50 50"><defs><style>.cls-1{fill:#a0231f;}</style></defs><g id="Group_235" data-name="Group 235"><path id="Path_614" data-name="Path 614" class="cls-1" d="M26.27,4.2c.75.1,1.5.18,2.25.31A20.79,20.79,0,1,1,4.66,29.08a31.35,31.35,0,0,1-.4-4,1.33,1.33,0,0,1,1.19-1.46h.14A1.39,1.39,0,0,1,7,25v.11A17.78,17.78,0,0,0,12.58,38a17.45,17.45,0,0,0,9.94,4.82A18,18,0,0,0,36.57,11.17a17.39,17.39,0,0,0-13.3-4.08,17.62,17.62,0,0,0-14.22,9.6,1.08,1.08,0,0,0-.08.19V17l.4,0c.81,0,1.63,0,2.44,0a1.37,1.37,0,0,1,.46,2.66,2.16,2.16,0,0,1-.72.1c-1.85,0-3.7,0-5.56,0a1.71,1.71,0,0,1-1.82-1V11.44a3.73,3.73,0,0,1,.69-.85A1.37,1.37,0,0,1,6.73,11a1.42,1.42,0,0,1,.2.72c0,.95,0,1.91,0,2.85a1.1,1.1,0,0,0,.33-.38A20.56,20.56,0,0,1,21,4.61c.91-.19,1.84-.27,2.77-.4Z"/><path id="Path_615" data-name="Path 615" class="cls-1" d="M26.35,18.28v5.19c0,.23.11.28.31.32a7.29,7.29,0,0,1,3.53,1.73,4.74,4.74,0,0,1,.62,6.67,5.14,5.14,0,0,1-.66.66,7.42,7.42,0,0,1-3.34,1.66l-.45.11v1.43a1.39,1.39,0,1,1-2.77.13V34.67A21.92,21.92,0,0,1,21.52,34a5.6,5.6,0,0,1-3.31-3.62,4.81,4.81,0,0,1-.15-1.2,1.35,1.35,0,0,1,1.25-1.35,1.38,1.38,0,0,1,1.47,1.08,1.75,1.75,0,0,1,0,.32,2.1,2.1,0,0,0,.65,1.45,4.26,4.26,0,0,0,2.1,1.12c0-.1,0-.18,0-.25V26.62c0-.26-.08-.36-.35-.41a7,7,0,0,1-3.74-2,4.68,4.68,0,0,1,.24-7,7.33,7.33,0,0,1,3.44-1.72l.41-.1V14a1.38,1.38,0,1,1,2.76-.15.85.85,0,0,1,0,.16v1.4c.45.12.89.22,1.32.37a6.47,6.47,0,0,1,3.52,2.66,4.38,4.38,0,0,1,.7,2.38,1.38,1.38,0,0,1-1.3,1.44A1.4,1.4,0,0,1,29.13,21,3.1,3.1,0,0,0,26.35,18.28Zm-2.78,0a3.93,3.93,0,0,0-2.47,1.61A1.75,1.75,0,0,0,21,21.67a3.74,3.74,0,0,0,2.56,1.77Zm2.81,8.33v5.19a4,4,0,0,0,2.38-1.48,1.86,1.86,0,0,0,0-2.24,4,4,0,0,0-2.38-1.47Z"/></g></svg>