<svg id="Layer_1" data-name="Layer 1" xmlns="http://www.w3.org/2000/svg" viewBox="0 0 50 50"><defs><style>.cls-1{fill:#a0231f;}</style></defs><g id="Group_935" data-name="Group 935"><path id="Path_3609" data-name="Path 3609" class="cls-1" d="M31.66,5.83,33.59,6,35,6.1v6.1h-.53c-1.28,0-2.57,0-3.86.06A2.42,2.42,0,0,0,28,14.51v.28c-.07,1.67,0,3.34,0,5.07h6.72l-.88,6.84H28V44.17h-7V26.72H15.05V19.89h5.88v-.48c0-1.79,0-3.58,0-5.36A8.57,8.57,0,0,1,23.2,8.32a7.81,7.81,0,0,1,4.23-2.26c.43-.09.87-.15,1.31-.23Z"/></g></svg>