<svg id="Layer_1" data-name="Layer 1" xmlns="http://www.w3.org/2000/svg" viewBox="0 0 50 50"><defs><style>.cls-1{fill:#a0231f;}</style></defs><g id="Group_234" data-name="Group 234"><path id="Path_607" data-name="Path 607" class="cls-1" d="M23.75,46.07c-.8-.11-1.61-.19-2.4-.33a20.73,20.73,0,0,1-12.2-6.86A21.07,21.07,0,1,1,45.6,20.58c.19.9.27,1.82.4,2.72,0,.15,0,.3.07.44v2.48c0,.29-.07.59-.1.88A21.15,21.15,0,0,1,28.62,45.74c-.8.14-1.6.22-2.4.33ZM44.24,25A19.26,19.26,0,1,0,25,44.24,19.26,19.26,0,0,0,44.24,25Z"/><path id="Path_608" data-name="Path 608" class="cls-1" d="M25.8,9.39A15.11,15.11,0,0,1,37,15.06c.58.68.35,1.51-.45,1.65a1,1,0,0,1-.95-.46,14,14,0,0,0-3-2.75,13.74,13.74,0,0,0-18,2.56,3.8,3.8,0,0,1-.33.37.9.9,0,0,1-1.26.05.87.87,0,0,1-.13-1.2l0,0a19.89,19.89,0,0,1,1.78-1.89A16,16,0,0,1,25.8,9.39Z"/><path id="Path_609" data-name="Path 609" class="cls-1" d="M25.59,40.57a15.91,15.91,0,0,1-11.81-4.78.93.93,0,0,1-.12-1.31l0,0a.9.9,0,0,1,1.28,0l0,.05a16.3,16.3,0,0,0,3,2.34,13.75,13.75,0,0,0,15.83-1.29c.41-.35.77-.75,1.18-1.09a.9.9,0,0,1,1.27,0,1.21,1.21,0,0,1,.2.3,1,1,0,0,1-.31,1.11,15.14,15.14,0,0,1-7.51,4.28C27.44,40.38,26.21,40.48,25.59,40.57Z"/><path id="Path_610" data-name="Path 610" class="cls-1" d="M20.39,27.21v1.22c0,.72-.35,1.13-.92,1.12s-.91-.43-.91-1.14V21.53c0-.78.36-1.14,1.13-1.14a13.11,13.11,0,0,1,2.26.1,2.69,2.69,0,0,1,2.12,2.65,2.75,2.75,0,0,1-2.15,2.67l-.19.07c.08.1.14.19.21.26.59.59,1.19,1.18,1.77,1.78a.91.91,0,0,1,.15,1.29.39.39,0,0,1-.08.1.93.93,0,0,1-1.32,0l0-.05c-.56-.54-1.11-1.1-1.67-1.66Zm0-3.14c.59-.06,1.22.18,1.64-.42a.84.84,0,0,0,0-1c-.42-.61-1-.37-1.64-.42Z"/><path id="Path_611" data-name="Path 611" class="cls-1" d="M35.09,22.23v1.84c.28,0,.55,0,.82,0a.9.9,0,0,1,1,.84.92.92,0,0,1-.84,1H35.1v1.83h1.35c.52,0,1,0,1.56.06a.85.85,0,0,1,.72.87.9.9,0,0,1-.7.86,2.61,2.61,0,0,1-.48,0H34.42c-.84,0-1.19-.35-1.19-1.17V21.55c0-.81.35-1.16,1.15-1.17h3.25c.81,0,1.28.58,1,1.23a1,1,0,0,1-1,.61H35.09Z"/><path id="Path_612" data-name="Path 612" class="cls-1" d="M27.75,25.89V27.7l.53,0c.79,0,1.59,0,2.38.05a.81.81,0,0,1,.72.78.84.84,0,0,1-.49.88,1.48,1.48,0,0,1-.59.12q-1.65,0-3.3,0a1,1,0,0,1-1.11-.83,1.4,1.4,0,0,1,0-.29v-7a1,1,0,0,1,.82-1.1h3.6a1,1,0,0,1,1,.54.75.75,0,0,1-.14.95,1.6,1.6,0,0,1-.88.34c-.69.05-1.37,0-2.06,0h-.47v1.83h.84a.91.91,0,0,1,.12,1.82.56.56,0,0,1-.13,0C28.33,25.9,28.06,25.89,27.75,25.89Z"/><path id="Path_613" data-name="Path 613" class="cls-1" d="M13.08,22.23v1.84h.77c.64,0,1,.37,1,.92a.91.91,0,0,1-.93.9h-.87c0,.16,0,.31,0,.45,0,.74,0,1.49,0,2.23a.91.91,0,0,1-.84,1h-.05a.91.91,0,0,1-.93-.91v-.08q0-3.58,0-7.17a.9.9,0,0,1,.81-1h.16q1.77,0,3.54,0a.91.91,0,0,1,1,.85.93.93,0,0,1-.85,1h-.15c-.73,0-1.45,0-2.18,0Z"/></g></svg>