<svg id="Layer_1" data-name="Layer 1" xmlns="http://www.w3.org/2000/svg" viewBox="0 0 50 50"><defs><style>.cls-1,.cls-4{fill:#a0231f;}.cls-1{stroke:#a0231f;}.cls-1,.cls-3{stroke-miterlimit:10;stroke-width:0.23px;}.cls-2{fill:none;}.cls-3{fill:#343434;stroke:#343434;}</style></defs><g id="Group_169" data-name="Group 169"><path id="Path_547" data-name="Path 547" class="cls-1" d="M36.37,25.71q0,4.39,0,8.77a.43.43,0,0,1-.33.48,32.35,32.35,0,0,1-22,0c-.2-.08-.36-.13-.36-.41q0-4.48,0-9l0-.2,1.4.61L12.2,24.71a.63.63,0,0,1,.33.64c0,3.2,0,6.4,0,9.59a.77.77,0,0,0,.51.85A34,34,0,0,0,24.44,38a33.39,33.39,0,0,0,12.32-2.14c.73-.27.76-.3.76-1.07q0-4.76,0-9.51a.55.55,0,0,1,.21-.52l-1.39.61A1.75,1.75,0,0,1,36.37,25.71Z"/><path id="Path_548" data-name="Path 548" class="cls-1" d="M41,23.56c0,1.29,0,2.58,0,3.87a1.06,1.06,0,0,1-.19.48c-.43.68-.88,1.35-1.32,2-.3.46-.25.72.2,1.05a3.18,3.18,0,0,0,3.83,0c.45-.34.5-.58.19-1.06-.46-.69-.93-1.38-1.37-2.08a1.35,1.35,0,0,1-.18-.61c0-1.33,0-2.66,0-4a.57.57,0,0,1,.08-.36l-1.27.5A.65.65,0,0,1,41,23.56Zm1.5,6.65a1.82,1.82,0,0,1-1.83,0l.92-1.39Z"/><path id="Path_549" data-name="Path 549" class="cls-2" d="M13.66,25.58q0,4.49,0,9c0,.28.16.33.36.41a32.35,32.35,0,0,0,22,0,.43.43,0,0,0,.33-.48q0-4.38,0-8.77a1.65,1.65,0,0,0,0-.32L25.61,32.5,15.09,26h0l-1.4-.61Z"/><path id="Path_550" data-name="Path 550" class="cls-2" d="M40.45,23.57l.5-.2h0Z"/><path id="Path_551" data-name="Path 551" class="cls-2" d="M43.08,21.13l-.2-.11L25.3,13.29a.86.86,0,0,0-.61,0L11.4,19.14l-4.48,2,.33.17L24.67,29a.84.84,0,0,0,.77,0l17.19-7.57C42.77,21.3,42.91,21.22,43.08,21.13Z"/><path id="Path_552" data-name="Path 552" class="cls-2" d="M36.33,25.39c-.2.09-.37.15-.53.23q-5.09,2.23-10.17,4.49a1.32,1.32,0,0,1-1.21,0c-2.6-1.17-5.21-2.31-7.82-3.46L15.09,26,25.61,32.5Z"/><path id="Path_553" data-name="Path 553" class="cls-3" d="M40.45,23.57l.5-.21h0l1.27-.5a.53.53,0,0,1,.29-.22c.76-.32,1.51-.64,2.24-1a.77.77,0,0,0,.35-.54c0-.17-.19-.36-.33-.51a.85.85,0,0,0-.3-.15L25.58,12.11a1.3,1.3,0,0,0-1.14,0q-9.48,4.2-19,8.38c-.29.13-.58.25-.58.62s.27.51.56.64l6.61,2.9.13.06L15.09,26h0l1.51.67c2.61,1.15,5.22,2.29,7.81,3.46a1.35,1.35,0,0,0,1.22,0q5.09-2.26,10.17-4.49l.53-.23,1.39-.61a.52.52,0,0,1,.18-.1c.76-.3,1.5-.65,2.24-1l.3-.12h0Zm-15,5.36a.84.84,0,0,1-.77,0L7.26,21.28l-.34-.17,4.48-2,13.29-5.83a.86.86,0,0,1,.61,0Q34.11,17.15,42.88,21l.2.11a4.83,4.83,0,0,1-.45.23L25.44,28.93Z"/><path id="Path_554" data-name="Path 554" class="cls-4" d="M15.09,26Z"/><path id="Path_555" data-name="Path 555" class="cls-4" d="M40.44,23.57Z"/></g></svg>