<svg id="Layer_1" data-name="Layer 1" xmlns="http://www.w3.org/2000/svg" viewBox="0 0 50 50"><defs><style>.cls-1{fill:#e2e0df;}</style></defs><g id="Group_923" data-name="Group 923"><path id="Path_3604" data-name="Path 3604" class="cls-1" d="M12.89,2.49h24a21.86,21.86,0,0,1,2.5.54,11.07,11.07,0,0,1,7.75,10.65q0,11.07,0,22.13a10.75,10.75,0,0,1-2.06,6.47A11,11,0,0,1,35.69,47H14.22A12.17,12.17,0,0,1,12,46.83a10.85,10.85,0,0,1-8.55-6.95,22.19,22.19,0,0,1-.79-3.14v-24c.06-.31.11-.63.17-.93A10.9,10.9,0,0,1,9.71,3.29,23.49,23.49,0,0,1,12.89,2.49ZM6.37,24.74h0V35.61a7.45,7.45,0,0,0,7.23,7.67H35.75a10.27,10.27,0,0,0,1.47-.1,7.32,7.32,0,0,0,6.19-6.9c0-7.59,0-15.18,0-22.77a6.61,6.61,0,0,0-.65-2.94,7.3,7.3,0,0,0-7-4.36H14a10.28,10.28,0,0,0-1.47.11,7.33,7.33,0,0,0-6.16,6.87c-.07,3.85,0,7.7,0,11.55Z"/><path id="Path_3605" data-name="Path 3605" class="cls-1" d="M24.83,13.62A11.13,11.13,0,1,1,13.76,24.8v0A11.15,11.15,0,0,1,24.83,13.62Zm0,18.53a7.41,7.41,0,1,0-7.37-7.44h0a7.39,7.39,0,0,0,7.36,7.43Z"/><path id="Path_3606" data-name="Path 3606" class="cls-1" d="M36.94,15.45a2.77,2.77,0,1,1,2.77-2.77A2.77,2.77,0,0,1,36.94,15.45Z"/></g></svg>