<svg id="Layer_1" data-name="Layer 1" xmlns="http://www.w3.org/2000/svg" viewBox="0 0 50 50"><defs><style>.cls-1{fill:#a0231f;}</style></defs><g id="Group_923" data-name="Group 923"><path id="Path_3604" data-name="Path 3604" class="cls-1" d="M14.1,4.8H35.89a21.61,21.61,0,0,1,2.26.48A10.08,10.08,0,0,1,45.2,15q0,10,0,20.08a9.79,9.79,0,0,1-1.88,5.88A10,10,0,0,1,34.8,45.2H15.31a11.61,11.61,0,0,1-2-.15,9.81,9.81,0,0,1-7.76-6.31,19.82,19.82,0,0,1-.72-2.85V14.11l.15-.85a9.86,9.86,0,0,1,6.27-7.73A19.41,19.41,0,0,1,14.1,4.8ZM8.18,25h0v9.87a6.76,6.76,0,0,0,6.55,7h.41q9.85,0,19.73,0a9.91,9.91,0,0,0,1.33-.09,6.65,6.65,0,0,0,5.61-6.26c.05-6.89,0-13.79,0-20.68a6,6,0,0,0-.6-2.67,6.62,6.62,0,0,0-6.34-4H15.12a8.51,8.51,0,0,0-1.33.1A6.66,6.66,0,0,0,8.2,14.5c-.06,3.5,0,7,0,10.5Z"/><path id="Path_3605" data-name="Path 3605" class="cls-1" d="M24.94,14.9a10.1,10.1,0,1,1-10,10.15h0v0A10.13,10.13,0,0,1,24.94,14.9Zm0,16.82A6.73,6.73,0,1,0,18.27,25h0A6.71,6.71,0,0,0,25,31.72Z"/><path id="Path_3606" data-name="Path 3606" class="cls-1" d="M35.93,16.57a2.52,2.52,0,1,1,2.52-2.52h0A2.53,2.53,0,0,1,35.93,16.57Z"/></g></svg>