<svg id="Layer_1" data-name="Layer 1" xmlns="http://www.w3.org/2000/svg" viewBox="0 0 50 50"><defs><style>.cls-1{fill:#a0231f;}</style></defs><g id="Group_162" data-name="Group 162"><path id="Path_526" data-name="Path 526" class="cls-1" d="M26.25,45h-2.5c-.49-.06-1-.11-1.46-.18a20.12,20.12,0,0,1-17-16.34c-.13-.75-.21-1.5-.31-2.24v-2.5a3.07,3.07,0,0,0,.07-.42c.1-.69.15-1.38.28-2A19.7,19.7,0,0,1,13.69,8.51,20,20,0,0,1,40,38.28,19.65,19.65,0,0,1,28.49,44.7C27.75,44.84,27,44.91,26.25,45ZM25,42.51A17.52,17.52,0,1,0,7.49,25,17.51,17.51,0,0,0,25,42.51Z"/><path id="Path_527" data-name="Path 527" class="cls-1" d="M24.13,12.52H25.8a.45.45,0,0,1,.45.45h0V24.11a.82.82,0,0,0,.27.64c1.9,1.88,5.59,5.53,6.61,6.52a.37.37,0,0,1,0,.52h0l-1.28,1.29a.37.37,0,0,1-.52,0C30.27,32,26.13,27.89,24,25.73a.73.73,0,0,1-.23-.5V12.87A.35.35,0,0,1,24.13,12.52Z"/></g></svg>