<svg id="Layer_1" data-name="Layer 1" xmlns="http://www.w3.org/2000/svg" viewBox="0 0 50 50"><defs><style>.cls-1{fill:#a0231f;}</style></defs><g id="Group_161" data-name="Group 161"><path id="Path_525" data-name="Path 525" class="cls-1" d="M41.21,46H8.56l-.23-.08A5.4,5.4,0,0,1,4,42c-.08-.26-.13-.52-.19-.79V11.82c0-.06.05-.12.07-.19A5.43,5.43,0,0,1,9.31,7H13v-2a1.25,1.25,0,0,1,.73-1.19,1.3,1.3,0,0,1,1.76.57,1.36,1.36,0,0,1,.14.6c0,.66,0,1.31,0,2H34.13c0-.69,0-1.36,0-2a1.31,1.31,0,0,1,1.29-1.25A1.34,1.34,0,0,1,36.76,5c0,.23,0,.46,0,.7V7h3.81A5.43,5.43,0,0,1,46,12.44q0,14.05,0,28.11a5.21,5.21,0,0,1-3.36,5A11.43,11.43,0,0,1,41.21,46ZM6.41,18.26v22a2.81,2.81,0,0,0,2.6,3H40.34a2.82,2.82,0,0,0,3-3v-22ZM43.35,15.6c0-1.14,0-2.24,0-3.33a2.71,2.71,0,0,0-2.2-2.51A6.25,6.25,0,0,0,40,9.68H36.76V11a1.32,1.32,0,0,1-2.64.08V9.71H15.65V11A1.32,1.32,0,0,1,13,11V9.71c-1.41,0-2.79-.09-4.15,0a2.71,2.71,0,0,0-2.44,2.76c0,.72,0,1.45,0,2.18v.94Z"/></g></svg>