<svg id="Layer_1" data-name="Layer 1" xmlns="http://www.w3.org/2000/svg" viewBox="0 0 50 50"><defs><style>.cls-1{fill:#a0231f;}</style></defs><g id="Group_936" data-name="Group 936"><path id="Path_3610" data-name="Path 3610" class="cls-1" d="M27.39,44.5H19.33v-26h7.72V22a23.7,23.7,0,0,1,1.61-1.85,8.32,8.32,0,0,1,5.1-2.22,12.7,12.7,0,0,1,4.94.47,7.44,7.44,0,0,1,5.06,5.36,19.09,19.09,0,0,1,.73,5.36c0,5,0,10.07,0,15.1,0,.06,0,.12,0,.22H36.42v-.55c0-4.3,0-8.61,0-12.91a16.22,16.22,0,0,0-.25-2.69c-.49-2.67-2.22-3.61-4.74-3.29A4.14,4.14,0,0,0,27.58,29a20.42,20.42,0,0,0-.19,2.7c0,4.07,0,8.13,0,12.2Z"/><path id="Path_3611" data-name="Path 3611" class="cls-1" d="M14.2,44.5h-8v-26h8Z"/><path id="Path_3612" data-name="Path 3612" class="cls-1" d="M14.85,10.17A4.68,4.68,0,1,1,10.14,5.5,4.67,4.67,0,0,1,14.85,10.17Z"/></g></svg>