<svg id="Layer_1" data-name="Layer 1" xmlns="http://www.w3.org/2000/svg" viewBox="0 0 50 50"><defs><style>.cls-1{fill:#e2e0df;}</style></defs><g id="Group_926" data-name="Group 926"><g id="Group_924" data-name="Group 924"><path id="Path_3607" data-name="Path 3607" class="cls-1" d="M42.18,38.9H7.62A3.82,3.82,0,0,1,3.8,35.08V14.47a3.82,3.82,0,0,1,3.82-3.82H42.18A3.82,3.82,0,0,1,46,14.47V35.08A3.82,3.82,0,0,1,42.18,38.9ZM7.62,13.78a.68.68,0,0,0-.68.68h0V35.08a.68.68,0,0,0,.68.68H42.18a.68.68,0,0,0,.68-.68h0V14.46a.68.68,0,0,0-.68-.68H7.62Z"/></g><g id="Group_925" data-name="Group 925"><path id="Path_3608" data-name="Path 3608" class="cls-1" d="M24.55,26.17a1.62,1.62,0,0,1-.85-.25L5.39,14.06A1.57,1.57,0,0,1,7.1,11.42h0L24.56,22.73,42,11.44l.36-.25a1.57,1.57,0,0,1,1.78,2.59h0l-.38.26,0,0L25.42,25.92A1.66,1.66,0,0,1,24.55,26.17Z"/></g></g></svg>