<svg id="Layer_1" data-name="Layer 1" xmlns="http://www.w3.org/2000/svg" viewBox="0 0 50 50"><defs><style>.cls-1{fill:#a0231f;}</style></defs><g id="Group_941" data-name="Group 941"><path id="Path_3618" data-name="Path 3618" class="cls-1" d="M48.41,17.31V38.79s0,.05,0,.08a4.34,4.34,0,0,1-4.69,3.66H5.87A4.31,4.31,0,0,1,1.6,38.18v0q0-10.25,0-20.48a2.35,2.35,0,0,1,0-.35l.16.09L20.76,30a7.05,7.05,0,0,0,8.48,0l17-11.29Z"/><path id="Path_3619" data-name="Path 3619" class="cls-1" d="M48.41,12.38a6.31,6.31,0,0,1-.55,1.38,5.18,5.18,0,0,1-1.35,1.45Q37,21.63,27.41,28a4.07,4.07,0,0,1-4.81,0Q13,21.62,3.44,15.2a4.07,4.07,0,0,1-1.68-4.57,4.32,4.32,0,0,1,4-3.16H43.85a4.35,4.35,0,0,1,4.33,3c.08.26.15.52.22.78Z"/></g></svg>