<svg id="Layer_1" data-name="Layer 1" xmlns="http://www.w3.org/2000/svg" viewBox="0 0 50 50"><defs><style>.cls-1{fill:#343434;}.cls-2{fill:#a0231f;}</style></defs><g id="Group_168" data-name="Group 168"><path id="Path_544" data-name="Path 544" class="cls-1" d="M10.62,45l-.13-.07A2,2,0,0,1,9,43.08c-.21-2.36-.38-4.72-.57-7.08,0-.66-.11-1.32-.16-2H7.07a2,2,0,0,1-2-2.45q1-5.4,2-10.78A2,2,0,0,1,9.11,19c2.58,0,5.15,0,7.73,0a2.94,2.94,0,0,1,1.2.29c2.57,1.26,5.15,2.53,7.7,3.86a1.81,1.81,0,0,0,1.54.15c3.73-1.09,7.47-2.14,11.21-3.21a1.06,1.06,0,0,1,1.4.48,1,1,0,0,1-.7,1.39c-1.34.4-2.68.77-4,1.16-2.59.73-5.17,1.48-7.76,2.2-.35.1-.46.25-.43.59a8.7,8.7,0,0,1,0,1.25,1.93,1.93,0,0,1-2,1.82,2.57,2.57,0,0,1-.4-.06c-1.77-.41-3.53-.87-5.3-1.31l-.49-.12c-.07.63-.14,1.23-.21,1.84L17.2,41.21c-.08.67-.14,1.34-.23,2a1.94,1.94,0,0,1-1.46,1.7l-.13.08ZM25,27c0-.58,0-1.11,0-1.64a.48.48,0,0,0-.34-.53L17.3,21.16A.71.71,0,0,0,17,21H14v6a1,1,0,0,1-.93,1.06.88.88,0,0,1-.28,0A1,1,0,0,1,12,27c0-1.83,0-3.65,0-5.47V21H9c-.66,3.65-1.33,7.29-2,11h3.13c.29,3.68.58,7.31.87,10.95h4c.67-6,1.34-12,2-18Z"/><path id="Path_545" data-name="Path 545" class="cls-2" d="M26.71,45c-.8-.51-.9-1-.4-1.81L31,35.43c.07-.12.13-.25.23-.43h-8A2,2,0,0,1,21,32.75V30.13c.64.16,1.25.3,1.84.47.07,0,.14.2.14.31,0,.67,0,1.35,0,2.05H43V17H23v2.5c-.68-.34-1.3-.64-1.9-1a.39.39,0,0,1-.1-.27c0-.46,0-.91,0-1.37A2,2,0,0,1,22.82,15a4.87,4.87,0,0,1,.54,0c6.37,0,12.73,0,19.1,0A2.29,2.29,0,0,1,45,16.64V33.36A2.26,2.26,0,0,1,42.46,35c-2.41,0-4.82,0-7.22,0h-.48l1.41,2.36c1.2,2,2.38,4,3.58,6a1.08,1.08,0,0,1,0,1.28,2.88,2.88,0,0,1-.5.41h-.54a4.71,4.71,0,0,1-.79-.82c-1.25-2-2.46-4.07-3.69-6.12L34,37.73c-.06,2-.08,3.92,0,5.85A1.38,1.38,0,0,1,33.27,45h-.55A1.32,1.32,0,0,1,32,43.63c0-1.83,0-3.67,0-5.5v-.37a.89.89,0,0,0-.28.3l-3.6,6a2.13,2.13,0,0,1-.86.92Z"/><path id="Path_546" data-name="Path 546" class="cls-2" d="M13,17a6,6,0,1,1,6-6v0A6,6,0,0,1,13,17ZM13,7a4,4,0,1,0,4,4,4,4,0,0,0-4-4Z"/></g></svg>