<svg id="Layer_1" data-name="Layer 1" xmlns="http://www.w3.org/2000/svg" viewBox="0 0 50 50"><defs><style>.cls-1{fill:#343434;stroke:#343434;}.cls-1,.cls-2{stroke-miterlimit:10;stroke-width:0.28px;}.cls-2{fill:#a0231f;stroke:#a0231f;}</style></defs><g id="Group_167" data-name="Group 167"><path id="Path_542" data-name="Path 542" class="cls-1" d="M5,39.51c.12-.61.19-1.24.35-1.83a10.32,10.32,0,0,1,6.19-7l.18-.07s0,0,0-.06a7.19,7.19,0,1,1,7.22,0l.28.13a10.71,10.71,0,0,1,6.51,10c0,1.07,0,2.15,0,3.22v0a1,1,0,0,1-1.06,1H6.1A1.09,1.09,0,0,1,5,43.88H5Zm2.67,3.87h15.4a1.18,1.18,0,0,0,1.18-1.18v0a25.45,25.45,0,0,0-.2-3.38,8.72,8.72,0,0,0-8-7.26,8.86,8.86,0,0,0-9.14,6.27,15.28,15.28,0,0,0-.36,4.47,1.1,1.1,0,0,0,1.1,1.1Zm8-24.66A5.62,5.62,0,1,0,21,24.57,4.69,4.69,0,0,0,21,24a5.61,5.61,0,0,0-5.37-5.32Z"/><path id="Path_543" data-name="Path 543" class="cls-2" d="M45,32.32a1.1,1.1,0,0,1-1.07.55q-9.33,0-18.67,0c-.79,0-1.05-.26-1-1.06a45.58,45.58,0,0,1,.09-4.68,10.1,10.1,0,0,1,6.32-8.49l.39-.17a7.16,7.16,0,0,1-3.59-6.09,6.9,6.9,0,0,1,2.14-5.28,7.2,7.2,0,0,1,10.1,10.26,6.81,6.81,0,0,1-1.35,1A30.55,30.55,0,0,1,41,20a10.1,10.1,0,0,1,4,7,1.94,1.94,0,0,0,.07.33Zm-2.82-1A1.29,1.29,0,0,0,43.47,30v0a25.67,25.67,0,0,0-.2-3.28,8.62,8.62,0,0,0-7.08-7.14,8.83,8.83,0,0,0-9,3.94c-1.33,2-1.42,4.26-1.37,6.52a1.29,1.29,0,0,0,1.28,1.27ZM34.6,17.81a5.56,5.56,0,1,0-.11,0Z"/></g></svg>