<svg id="Layer_1" data-name="Layer 1" xmlns="http://www.w3.org/2000/svg" viewBox="0 0 50 50"><defs><style>.cls-1{fill:#343434;stroke:#343434;}.cls-1,.cls-2{stroke-miterlimit:10;stroke-width:0.31px;}.cls-2{fill:#a0231f;stroke:#a0231f;}</style></defs><g id="Group_165" data-name="Group 165"><path id="Path_531" data-name="Path 531" class="cls-1" d="M24.89,34.75c-1.2,1.47-2.37,2.86-3.5,4.28q-3,3.8-6,7.63c-.62.78-.81.82-1.71.35A25.23,25.23,0,0,1,3,36.31c-.46-.86-.4-1.06.35-1.67l12.45-10c.24-.19.45-.41.68-.6.56-.49,1.08-.9.91-1.86a1.82,1.82,0,0,1,1.37-2,2.42,2.42,0,0,0,1.43-1.42,2.14,2.14,0,0,1,2.55-1.39.9.9,0,0,0,.68-.28Q27.63,12,31.81,6.91c1-1.21,1.93-2.45,2.9-3.67.51-.64.76-.7,1.48-.32A25.19,25.19,0,0,1,47,13.7c.45.85.39,1.06-.37,1.67L35.28,24.48c-.15.12-.29.26-.51.46l3.4,1.24c.3.11.61.2.9.33a.84.84,0,0,1,.34,1.41c-.44.51-.93,1-1.37,1.51a1.1,1.1,0,0,0-.23.63c0,.62,0,1.24.08,1.86,0,.95-.45,1.32-1.36,1L31.18,31l-.31-.09,1.26,3.49c.27.75.55,1.5.81,2.26S32.82,38,32,37.87A3.82,3.82,0,0,0,28,39.27c-.6.73-1.28.5-1.61-.41C26,37.57,25.48,36.27,25,35,25,34.94,25,34.91,24.89,34.75Zm8.55-11,12-9.55a23.69,23.69,0,0,0-9.58-9.58l-9.55,12a17.87,17.87,0,0,1,1.57,1.18,2,2,0,0,0,1.33.68,2.31,2.31,0,0,1,2.42,2.43,2,2,0,0,0,.64,1.29A17.31,17.31,0,0,1,33.44,23.74ZM14.19,45.39c3.24-4,6.44-8,9.54-11.94-.55-.42-1.1-.9-1.71-1.32a2.69,2.69,0,0,0-1.14-.52,2.37,2.37,0,0,1-2.46-2.47,1.94,1.94,0,0,0-.61-1.25c-.47-.51-.86-1.1-1.26-1.63L4.61,35.81a23.81,23.81,0,0,0,9.58,9.58ZM27.86,31c.11-.12.35-.26.42-.46a3.59,3.59,0,0,1,2.25-2.25.59.59,0,0,0,.45-.72.29.29,0,0,0-.05-.13,3.23,3.23,0,0,1,.46-3,.63.63,0,0,0,0-.89l-.12-.09a3.19,3.19,0,0,1-1.36-2.67.68.68,0,0,0-.61-.75h-.14a3.16,3.16,0,0,1-2.63-1.32.68.68,0,0,0-.93-.26.71.71,0,0,0-.14.1,3.13,3.13,0,0,1-2.85.46.66.66,0,0,0-.9.31.48.48,0,0,0-.06.18,3.29,3.29,0,0,1-2.09,2.07.69.69,0,0,0-.47,1,3,3,0,0,1-.44,2.79.73.73,0,0,0,.21,1.16,3,3,0,0,1,1.24,2.48.77.77,0,0,0,.66.85h.19a3,3,0,0,1,2.47,1.24.77.77,0,0,0,1.22.18,3,3,0,0,1,2.62-.44l.61.13Zm4.3-1.48L36.25,31a2.68,2.68,0,0,1,1.17-3.33l-5-1.8a8.71,8.71,0,0,1,.23,1.84,9.39,9.39,0,0,1-.48,1.81Zm-6.27,2.91c.62,1.72,1.19,3.28,1.81,5A2.66,2.66,0,0,1,31,36.24c-.54-1.51-1-2.87-1.56-4.32-1,1.23-2.29.54-3.56.53Z"/><path id="Path_532" data-name="Path 532" class="cls-2" d="M29.25,25.07a4.26,4.26,0,1,1-4.18-4.34h0a4.24,4.24,0,0,1,4.17,4.33ZM25,27.71a2.71,2.71,0,1,0,0-5.42A2.7,2.7,0,0,0,22.28,25h0A2.7,2.7,0,0,0,25,27.71Z"/></g></svg>