<svg id="Layer_1" data-name="Layer 1" xmlns="http://www.w3.org/2000/svg" viewBox="0 0 50 50"><defs><style>.cls-1{fill:#a0231f;}</style></defs><g id="Group_939" data-name="Group 939"><path id="Path_3616" data-name="Path 3616" class="cls-1" d="M26,4.79c.8.13,1.61.22,2.4.4A15.2,15.2,0,0,1,39.94,17.36a16.63,16.63,0,0,1-1.15,9.06,42.23,42.23,0,0,1-5.32,9.33,75.94,75.94,0,0,1-7.82,9.08c-.52.51-.77.51-1.29,0a69.53,69.53,0,0,1-10.5-13.12,29.19,29.19,0,0,1-3.65-8.6,15.12,15.12,0,0,1,11.59-18,15.9,15.9,0,0,1,1.92-.29A1.1,1.1,0,0,0,24,4.79ZM32,19.94a6.95,6.95,0,1,0-6.94,7h.07A6.94,6.94,0,0,0,32,19.94Z"/></g></svg>