<svg id="Layer_1" data-name="Layer 1" xmlns="http://www.w3.org/2000/svg" viewBox="0 0 32 42.66"><defs><style>.cls-1{fill:#a0231f;}</style></defs><g id="Group_163" data-name="Group 163"><path id="Path_528" data-name="Path 528" class="cls-1" d="M24.69,46.32a16.94,16.94,0,0,1-1.43-1.24,76.41,76.41,0,0,1-9.53-12.24,34.6,34.6,0,0,1-4-8.61,15.51,15.51,0,0,1,3-14.75A15.29,15.29,0,0,1,22.89,3.81a16,16,0,0,1,18,13.67,17.22,17.22,0,0,1-1.25,8.8,42.26,42.26,0,0,1-4.55,8.49,80.37,80.37,0,0,1-8.75,10.8,11.42,11.42,0,0,1-1,.76ZM25,43.09a2.88,2.88,0,0,1,.18-.24,78.81,78.81,0,0,0,8.68-11.17,32.19,32.19,0,0,0,4-8.62,12.81,12.81,0,0,0-.2-7.58,13,13,0,0,0-6.09-7.43A13.3,13.3,0,0,0,12,22.27a26.73,26.73,0,0,0,3.23,7.86,68.56,68.56,0,0,0,7.5,10.33c.74.87,1.5,1.72,2.31,2.63Z" transform="translate(-9 -3.67)"/><path id="Path_529" data-name="Path 529" class="cls-1" d="M25,11.64a8,8,0,1,1-8,8A8,8,0,0,1,25,11.64Zm5.34,8A5.33,5.33,0,1,0,25,25h0A5.34,5.34,0,0,0,30.35,19.66Z" transform="translate(-9 -3.67)"/></g></svg>