<svg id="Layer_1" data-name="Layer 1" xmlns="http://www.w3.org/2000/svg" viewBox="0 0 50 50"><defs><style>.cls-1{fill:#343434;stroke:#343434;stroke-width:0.29px;}.cls-1,.cls-2{stroke-miterlimit:10;}.cls-2{fill:#a0231f;stroke:#a0231f;stroke-width:0.58px;}</style></defs><g id="Group_166" data-name="Group 166"><path id="Path_533" data-name="Path 533" class="cls-1" d="M35,4l.25.1A3,3,0,0,1,37.52,7c0,2.73,0,5.46,0,8.2a.62.62,0,0,1-.53.68h-.11c-.37,0-.58-.26-.58-.7,0-2.6,0-5.19,0-7.79a1.87,1.87,0,0,0-2.11-2.12H13.85c-.63,0-.63,0-.63.62v4.79A2.15,2.15,0,0,1,10.85,13H5.49c0,.22,0,.39,0,.57v29.2a1.82,1.82,0,0,0,2,2H34.26a1.86,1.86,0,0,0,2.05-2.07c0-.2,0-.41,0-.61a.57.57,0,0,1,.56-.57h0a.59.59,0,0,1,.62.49,3.21,3.21,0,0,1-2.33,3.89,2.84,2.84,0,0,1-.72.09H7.28a3,3,0,0,1-3-3.13c0-5.61,0-11.21,0-16.81,0-4.13,0-8.26,0-12.39A3.48,3.48,0,0,1,5.32,11C7.17,9.2,9,7.37,10.83,5.51A4.88,4.88,0,0,1,13.11,4ZM6.44,11.77c1.56,0,3.11,0,4.65,0,.58,0,.89-.37.9-1,0-1.44,0-2.87,0-4.31a.73.73,0,0,0-.05-.2Z"/><path id="Path_534" data-name="Path 534" class="cls-2" d="M32.63,34.57a2.53,2.53,0,0,1-2.14-2.46A1.26,1.26,0,0,0,29.62,31,2.39,2.39,0,0,1,28.08,29a2.17,2.17,0,0,1,.34-1.49,1.43,1.43,0,0,0,0-1.65,2.4,2.4,0,0,1,.78-3.31,2,2,0,0,1,.36-.18,1.46,1.46,0,0,0,1-1.33,2.41,2.41,0,0,1,2.57-2.23,2.57,2.57,0,0,1,.4.06,1.5,1.5,0,0,0,1.6-.53,2.42,2.42,0,0,1,3.4-.25,3.7,3.7,0,0,1,.28.28,1.43,1.43,0,0,0,1.53.51,2.39,2.39,0,0,1,3,2.2,1.43,1.43,0,0,0,.94,1.27,2.42,2.42,0,0,1,1.36,3.14,2.27,2.27,0,0,1-.21.41,1.42,1.42,0,0,0,0,1.58,2.43,2.43,0,0,1-.74,3.35,2.26,2.26,0,0,1-.44.22,1.37,1.37,0,0,0-.9,1.25,2.35,2.35,0,0,1-1.8,2.19c-.28.08-.31.21-.31.46V40A1.27,1.27,0,0,1,40,41.43a1.7,1.7,0,0,1-.88-.23c-.65-.35-1.27-.75-1.89-1.15a.5.5,0,0,0-.65,0c-.61.4-1.24.75-1.85,1.14a1.32,1.32,0,0,1-1.86-.25,1.36,1.36,0,0,1-.27-.93c0-1.66,0-3.31,0-5Zm11.91-9.84a1.29,1.29,0,0,0-.82-1.29,2.47,2.47,0,0,1-1.63-2.2,1.22,1.22,0,0,0-1.63-1.17,2.44,2.44,0,0,1-2.54-.82,1.22,1.22,0,0,0-2,0,2.47,2.47,0,0,1-2.54.85,1.24,1.24,0,0,0-1.66,1.22,2.36,2.36,0,0,1-1.45,2.07c-1,.47-1.23,1.09-.68,2.06a2.42,2.42,0,0,1,0,2.49c-.55,1-.34,1.59.68,2.06a2.36,2.36,0,0,1,1.45,2c.12,1.1.67,1.52,1.74,1.29a2.22,2.22,0,0,1,2.33.75,1.37,1.37,0,0,0,1.91.33A1.39,1.39,0,0,0,38,34a2.12,2.12,0,0,1,2.32-.75,1.35,1.35,0,0,0,1.71-.81,1.25,1.25,0,0,0,.07-.47,2.29,2.29,0,0,1,1.53-2A1.24,1.24,0,0,0,44.29,28a2.44,2.44,0,0,1,0-2.67,4.6,4.6,0,0,0,.25-.61ZM33.87,40.27a16.78,16.78,0,0,0,1.62-1,2,2,0,0,1,2.85,0,13.84,13.84,0,0,0,1.6,1V34.45a1.07,1.07,0,0,0-1,.42,2.5,2.5,0,0,1-4,0,1.09,1.09,0,0,0-1.06-.42Z"/><path id="Path_535" data-name="Path 535" class="cls-1" d="M24.63,8.25h6.11A1.39,1.39,0,0,1,32.31,9.8v1.6A1.41,1.41,0,0,1,30.69,13H22.33c-.44,0-.71-.28-.69-.65a.63.63,0,0,1,.71-.58h8.19c.54,0,.54,0,.54-.54s0-.93,0-1.39c0-.26-.07-.36-.34-.36H18.52c-.26,0-.37.06-.36.34,0,.53,0,1.07,0,1.6,0,.27.1.37.36.35s.58,0,.86,0a.6.6,0,0,1,.6.6.61.61,0,0,1-.55.6,6.77,6.77,0,0,1-1.35,0,1.29,1.29,0,0,1-1.14-1.29c0-.69,0-1.37,0-2.05a1.32,1.32,0,0,1,1.29-1.37h6.4Z"/><path id="Path_536" data-name="Path 536" class="cls-1" d="M17.33,27.54H25c.15,0,.35-.05.44,0a1.28,1.28,0,0,1,.42.58c.07.3-.15.51-.45.59a1.61,1.61,0,0,1-.44,0H9.59c-.44,0-.72-.25-.73-.61s.28-.61.72-.61h7.75Z"/><path id="Path_537" data-name="Path 537" class="cls-1" d="M17.34,24.43H9.79a1.79,1.79,0,0,1-.4,0,.51.51,0,0,1-.5-.53v0a1,1,0,0,1,.38-.59c.11-.1.34-.07.51-.07q7.56,0,15.13,0a1.56,1.56,0,0,1,.48,0,.6.6,0,0,1,.41.75.61.61,0,0,1-.51.43H17.34Z"/><path id="Path_538" data-name="Path 538" class="cls-1" d="M17.38,31.86h7.54c.16,0,.37,0,.48,0s.4.35.4.54a1,1,0,0,1-.38.59c-.11.09-.34.06-.51.06H9.58c-.44,0-.72-.26-.72-.62s.28-.6.73-.6h7.79Z"/><path id="Path_539" data-name="Path 539" class="cls-1" d="M17.37,18.89h7.5a2.63,2.63,0,0,1,.49,0,.55.55,0,0,1,.47.54.56.56,0,0,1-.43.62,2,2,0,0,1-.49,0H9.62c-.47,0-.76-.25-.76-.62s.29-.6.77-.6h7.74Z"/><path id="Path_540" data-name="Path 540" class="cls-1" d="M13.48,38.19H17.2c.5,0,.76.21.78.6s-.28.63-.78.63H9.62c-.57,0-.9-.4-.7-.85a.66.66,0,0,1,.71-.38C10.91,38.2,12.19,38.19,13.48,38.19Z"/><path id="Path_541" data-name="Path 541" class="cls-2" d="M36.89,21.53a5.15,5.15,0,1,1-5.13,5.15v0A5.13,5.13,0,0,1,36.89,21.53Zm0,1.23a3.92,3.92,0,1,0,3.91,3.94,3.92,3.92,0,0,0-3.91-3.94Z"/></g></svg>