<svg id="Layer_1" data-name="Layer 1" xmlns="http://www.w3.org/2000/svg" viewBox="0 0 50 50"><defs><style>.cls-1{fill:#a0231f;stroke:#a0231f;stroke-width:0.28px;}.cls-1,.cls-3{stroke-miterlimit:10;}.cls-2{fill:none;}.cls-3{fill:#343434;stroke:#343434;stroke-width:0.56px;}</style></defs><g id="Group_170" data-name="Group 170"><path id="Path_556" data-name="Path 556" class="cls-1" d="M43.35,19.72a.52.52,0,0,1-.42.61h0Q37,22.42,31.06,24.53c-1.9.67-3.8,1.35-5.7,2a1.19,1.19,0,0,1-.7,0L7.05,20.32c-.29-.1-.41-.22-.39-.55s0-.6,0-.91h0v5.22h0v-2L9.4,23l14.87,5.19a1.44,1.44,0,0,0,1.15-.1c.95-.41,1.95-.71,2.93-1.05L42.93,22l.41-.12v2h0V18.1h0C43.33,18.65,43.32,19.18,43.35,19.72Z"/><path id="Path_557" data-name="Path 557" class="cls-1" d="M31.66,10.82a2.49,2.49,0,0,0-2.47-2.47c-2.79,0-5.57,0-8.36,0a2.49,2.49,0,0,0-2.48,2.49c0,.69,0,1.38,0,2.07,0,.14,0,.28,0,.43H31.66C31.66,12.45,31.67,11.63,31.66,10.82ZM30,13.21l0,.12H20c0-.91,0-1.8,0-2.69,0-.4.37-.63.82-.63h8.07c.85,0,1.08.24,1.08,1.1Z"/><path id="Path_558" data-name="Path 558" class="cls-2" d="M7.05,20.32l17.61,6.22a1.19,1.19,0,0,0,.7,0c1.9-.66,3.8-1.34,5.7-2l11.87-4.2a.52.52,0,0,0,.42-.6h0c0-.53,0-1.07,0-1.61l-36.67.75c0,.31,0,.61,0,.91S6.76,20.22,7.05,20.32Z"/><path id="Path_559" data-name="Path 559" class="cls-2" d="M43.34,21.87l-.41.12L28.35,27.06c-1,.34-2,.64-2.93,1.05a1.42,1.42,0,0,1-1.14.1Q16.84,25.6,9.41,23l-2.74-.95v2l19.24,8.13,17.43-8.36v-2Z"/><path id="Path_560" data-name="Path 560" class="cls-2" d="M6.66,24.08V37.23A2.58,2.58,0,0,0,9.45,40H40.54a2.58,2.58,0,0,0,2.8-2.79V23.84L25.91,32.21Z"/><path id="Path_561" data-name="Path 561" class="cls-2" d="M43.34,17.77A2.58,2.58,0,0,0,40.56,15H9.32a2.56,2.56,0,0,0-2.65,2.46.49.49,0,0,0,0,.17c0,.41,0,.82,0,1.23l36.67-.75Z"/><path id="Path_562" data-name="Path 562" class="cls-3" d="M45,16.89a4.12,4.12,0,0,0-4.5-3.55h-31a6.45,6.45,0,0,0-1,.06A4.09,4.09,0,0,0,5,17.5c0,3.06,0,6.12,0,9.18V37.34a4.33,4.33,0,0,0,.56,2.25,4.13,4.13,0,0,0,3.81,2.07H41a4.08,4.08,0,0,0,3.73-2.78c.09-.27.15-.55.23-.82V17S45,16.92,45,16.89Zm-1.61,7h0V37.21A2.58,2.58,0,0,1,40.54,40H9.45a2.59,2.59,0,0,1-2.79-2.77V24.08h0V18.87h0c0-.42,0-.83,0-1.24A2.56,2.56,0,0,1,9.16,15h31.4a2.58,2.58,0,0,1,2.78,2.77v.34h0Z"/></g></svg>