<svg id="Layer_1" data-name="Layer 1" xmlns="http://www.w3.org/2000/svg" viewBox="0 0 50 50"><defs><style>.cls-1{fill:#a0231f;}</style></defs><g id="Group_940" data-name="Group 940"><path id="Path_3617" data-name="Path 3617" class="cls-1" d="M14.85,4.74A5.93,5.93,0,0,1,17.92,7.4c.88,1.34,1.73,2.72,2.5,4.12a4.93,4.93,0,0,1,.62,3.4A3.49,3.49,0,0,1,20,16.85a24.76,24.76,0,0,1-2.42,2,3.4,3.4,0,0,0-1.29,4.43A15.65,15.65,0,0,0,19,27.84a31.8,31.8,0,0,0,4.76,5A8.33,8.33,0,0,0,27,34.69,3,3,0,0,0,30,33.87c.82-.78,1.63-1.57,2.5-2.31A3.85,3.85,0,0,1,37,31.15a9.1,9.1,0,0,1,1.52.93,23.81,23.81,0,0,1,4.62,4.29,2.69,2.69,0,0,1-.12,3.8l-.21.18A24.17,24.17,0,0,1,39,43.51a12.74,12.74,0,0,1-8.19,1.64,19.31,19.31,0,0,1-8.42-3.41,43.09,43.09,0,0,1-8.81-8.3,37.54,37.54,0,0,1-5.8-9.07,18.23,18.23,0,0,1-1.65-7.23A12.45,12.45,0,0,1,10.91,6.88c.49-.39.91-.85,1.42-1.2S13.42,5,14,4.73Z"/></g></svg>