<svg id="Layer_1" data-name="Layer 1" xmlns="http://www.w3.org/2000/svg" viewBox="0 0 50 50"><defs><style>.cls-1{fill:#a0231f;}</style></defs><g id="Group_937" data-name="Group 937"><path id="Path_3613" data-name="Path 3613" class="cls-1" d="M4.09,38.21A17.59,17.59,0,0,0,16.7,34.65a8.7,8.7,0,0,1-6.31-3,8.41,8.41,0,0,1-1.69-3,9.67,9.67,0,0,0,3.75-.17A8.59,8.59,0,0,1,5.72,20a8.67,8.67,0,0,0,3.79,1A8.62,8.62,0,0,1,5.8,14.91,8.35,8.35,0,0,1,6.91,9.56a24.49,24.49,0,0,0,17.65,9c0-.87-.1-1.68-.08-2.5A8.56,8.56,0,0,1,30.7,8.29a8.47,8.47,0,0,1,8.39,2.17.56.56,0,0,0,.58.14,17.41,17.41,0,0,0,4.72-1.79l.35-.18a6.68,6.68,0,0,1-1.38,2.62c-.64.73-1.38,1.37-2.1,2.09.77-.17,1.56-.31,2.33-.52s1.49-.49,2.32-.67c-.69.81-1.34,1.65-2.08,2.42-.6.61-1.3,1.12-1.93,1.71a.73.73,0,0,0-.23.5A24.72,24.72,0,0,1,31,38a22,22,0,0,1-10.27,3.87,25.33,25.33,0,0,1-10.39-.75,23.8,23.8,0,0,1-6-2.71Z"/></g></svg>