<svg id="Layer_1" data-name="Layer 1" xmlns="http://www.w3.org/2000/svg" viewBox="0 0 50 50"><defs><style>.cls-1{fill:#a0231f;}</style></defs><g id="Group_232" data-name="Group 232"><path id="Path_600" data-name="Path 600" class="cls-1" d="M3.87,20.53a4.82,4.82,0,0,1,1-.86Q20.82,13.31,36.72,7c.84-.33,1.17-.19,1.5.64L46,27c.36.89.22,1.2-.66,1.56l-4.56,1.81a.46.46,0,0,0-.36.53q0,5.55,0,11.1c0,.88-.25,1.12-1.14,1.12H5a1.12,1.12,0,0,1-1.12-.59ZM38.7,21.62H5.55V41.48H38.71ZM9,19.84l0,.09H13.6A.78.78,0,0,0,14,19.8a3.51,3.51,0,0,1,.61-.39q3.66-1.48,7.34-2.94l9.54-3.78a.84.84,0,0,1,1.13.3,4.87,4.87,0,0,0,4.08,1.77c.61,0,.83.09,1.06.65.57,1.38,1.11,2.77,1.68,4.16a.67.67,0,0,0,.28.36c.58.25.69.39.69,1v7.82l3.86-1.54L36.86,8.73Zm28.78.07c0-.13-.08-.24-.12-.35-.37-.92-.75-1.83-1.09-2.76a.52.52,0,0,0-.54-.38,6.35,6.35,0,0,1-4.11-1.78.48.48,0,0,0-.61-.11l-13,5.18-.36.15,0,.06Z"/><path id="Path_601" data-name="Path 601" class="cls-1" d="M22.16,23.25h9.66c1,0,1.07,0,1.44,1a4.92,4.92,0,0,0,3,2.9c.6.21.76.4.76,1q0,3.41,0,6.81c0,.6-.17.79-.77,1a4.85,4.85,0,0,0-3.09,3.09c-.24.66-.38.78-1.08.78h-20a.87.87,0,0,1-1-.7v0A4.89,4.89,0,0,0,7.91,36a.85.85,0,0,1-.71-1h0q0-3.4,0-6.81c0-.67.16-.82.79-1.05a4.87,4.87,0,0,0,3.07-3.06c.24-.66.41-.8,1.12-.8q5,0,10,0Zm0,14.94h9.2a.48.48,0,0,0,.53-.32,6.36,6.36,0,0,1,3.23-3.21.43.43,0,0,0,.29-.47q0-2.64,0-5.28a.45.45,0,0,0-.31-.49,6.4,6.4,0,0,1-3.22-3.22.41.41,0,0,0-.45-.3H12.81a.39.39,0,0,0-.43.27,6.46,6.46,0,0,1-3.25,3.26.44.44,0,0,0-.3.46q0,2.64,0,5.28a.47.47,0,0,0,.32.49,6.36,6.36,0,0,1,3.18,3.16.55.55,0,0,0,.62.37Z"/><path id="Path_602" data-name="Path 602" class="cls-1" d="M27.1,31.54a5,5,0,1,1-5-5A5,5,0,0,1,27.1,31.54Zm-1.66,0a3.32,3.32,0,1,0-3.32,3.33,3.32,3.32,0,0,0,3.32-3.33v0Z"/><path id="Path_603" data-name="Path 603" class="cls-1" d="M13,32.78a1.24,1.24,0,0,1-1.23-1.24,1.25,1.25,0,1,1,2.49,0A1.25,1.25,0,0,1,13,32.78ZM12.89,32h.19c.11-.16.3-.32.29-.47a.54.54,0,0,0-.37-.38.31.31,0,0,0-.39.24.26.26,0,0,0,0,.15,2,2,0,0,0,.3.46Z"/><path id="Path_604" data-name="Path 604" class="cls-1" d="M30,31.56a1.24,1.24,0,0,1,1.21-1.26,1.27,1.27,0,0,1,1.27,1.25,1.24,1.24,0,0,1-2.48,0Zm1.34-.49h-.18c-.11.15-.28.29-.31.45a.32.32,0,0,0,.21.4.32.32,0,0,0,.17,0c.15,0,.38-.23.39-.36S31.46,31.24,31.36,31.07Z"/></g></svg>