<svg id="Layer_1" data-name="Layer 1" xmlns="http://www.w3.org/2000/svg" viewBox="0 0 50 50"><defs><style>.cls-1{fill:#a0231f;}</style></defs><g id="Group_938" data-name="Group 938"><path id="Path_3614" data-name="Path 3614" class="cls-1" d="M6.73,43.35c.28-1,.55-2,.81-3,.56-2,1.12-4,1.66-6.07a.91.91,0,0,0-.07-.63,18.21,18.21,0,1,1,24.74,7.11,17.26,17.26,0,0,1-3.43,1.46A17.94,17.94,0,0,1,16.65,41a1,1,0,0,0-.6-.06c-3,.76-5.93,1.55-8.9,2.32Zm4.36-4.29,5.32-1.4a.9.9,0,0,1,.78.11A14.77,14.77,0,0,0,28,39.69a15.12,15.12,0,1,0-17.76-11.9,15.56,15.56,0,0,0,1.66,4.49A3,3,0,0,1,12.23,35c-.44,1.32-.75,2.69-1.14,4.1Z"/><path id="Path_3615" data-name="Path 3615" class="cls-1" d="M19.17,16.5c.79-.19,1.17.27,1.44,1,.41,1.07.86,2.12,1.31,3.17a.91.91,0,0,1-.09,1c-.36.48-.7,1-1.08,1.43a.72.72,0,0,0-.08.94,12.46,12.46,0,0,0,6.26,5.37.71.71,0,0,0,.91-.23c.45-.55.9-1.1,1.34-1.67.33-.41.52-.51,1-.3,1.28.59,2.56,1.2,3.82,1.83a.76.76,0,0,1,.29.56,3.5,3.5,0,0,1-2.66,3.73,5.36,5.36,0,0,1-3.6,0,18.49,18.49,0,0,1-10.19-7.61A10.27,10.27,0,0,1,16,22.07,5.17,5.17,0,0,1,17.47,17,1.9,1.9,0,0,1,19.17,16.5Z"/></g></svg>